<?xml version="1.0" encoding="UTF-8" ?>
<!DOCTYPE svg PUBLIC "-//W3C//DTD SVG 1.1//EN" "http://www.w3.org/Graphics/SVG/1.1/DTD/svg11.dtd">
<svg width="236pt" height="108pt" viewBox="0 0 1182 540" version="1.1" xmlns="http://www.w3.org/2000/svg">
<path fill="#ffffff" d=" M 339.00 34.03 C 387.90 21.29 438.60 17.32 488.98 16.97 C 489.06 146.97 488.93 276.97 489.03 406.97 C 555.91 406.83 622.79 407.42 689.66 406.66 C 690.40 379.78 689.83 352.89 690.00 326.00 C 689.81 289.33 690.65 252.65 689.02 216.01 C 688.94 185.68 691.28 155.33 689.21 125.01 C 688.87 89.02 688.72 53.02 689.36 17.03 C 726.91 16.22 764.43 18.24 801.98 18.02 C 802.05 147.01 801.95 276.00 802.03 405.00 C 820.72 403.43 838.96 397.70 855.12 388.18 C 878.62 374.78 898.67 356.46 919.96 339.97 C 970.36 300.44 1003.47 242.62 1021.86 181.96 C 1038.13 128.64 1044.15 72.62 1044.06 17.02 C 1084.38 16.98 1124.69 16.97 1165.01 17.03 C 1166.25 85.38 1153.13 153.44 1130.79 217.86 C 1114.13 266.17 1092.75 313.25 1062.93 354.94 C 1043.21 383.31 1019.12 408.51 992.65 430.64 C 939.20 474.47 873.89 501.78 806.87 516.87 C 751.60 527.58 694.96 524.55 639.00 525.00 C 590.00 524.66 540.98 525.86 492.00 524.00 C 453.68 523.92 415.36 524.09 377.03 523.97 C 376.92 398.90 377.08 273.84 376.96 148.77 C 349.11 148.45 322.49 159.90 299.04 174.06 C 260.85 197.92 225.37 227.70 200.96 265.97 C 164.02 321.24 145.68 386.91 138.55 452.46 C 135.43 476.50 134.60 500.75 134.97 524.98 C 94.64 525.02 54.31 525.03 13.98 524.97 C 12.13 429.35 37.19 334.55 78.81 248.89 C 100.58 205.63 128.21 164.88 163.22 131.22 C 211.20 83.15 273.39 50.52 339.00 34.03 Z" />
</svg>
